<?xml version="1.0" encoding="UTF-8"?> <svg xmlns="http://www.w3.org/2000/svg" xmlns:xlink="http://www.w3.org/1999/xlink" xmlns:fi="http://pattern.flaticon.com/" x="0" y="0" width="3840" height="1920" viewBox="0 0 3481.8652849740934 1740.9326424870467"><rect x="0px" y="0px" width="100%" height="100%" opacity="1" fill="#ffd2dc"></rect><defs><g transform="matrix(0.08567075046647238 0.08567075046647238 -0.08567075046647238 0.08567075046647238 33 181.13657576116614)" id="L1_75"><circle cx="256" cy="256" r="256" fill="#ff4d05" id="XMLID_3409_"></circle><path d="m135.716 482.021c35.862 19.125 76.803 29.979 120.284 29.979 141.385 0 256-114.615 256-256 0-43.477-10.852-84.414-29.974-120.274l-39.59-39.59-372.875 319.73z" fill="#c30047"></path><g><path d="m92.353 121.735h327.291v268.531h-327.291z" fill="#ffffff"></path><g><g><path d="m99.108 334.446h52.297v52.297h-52.297z" fill="#494949"></path><path d="m99.108 229.853h52.297v52.297h-52.297z" fill="#494949"></path><path d="m151.405 282.15h52.297v52.297h-52.297z" fill="#494949"></path><path d="m151.405 177.556h52.297v52.297h-52.297z" fill="#494949"></path><path d="m99.108 125.259h52.297v52.297h-52.297z" fill="#494949"></path></g><g><path d="m203.702 334.446h52.297v52.297h-52.297z" fill="#494949"></path><path d="m255.999 121.731h163.65v268.54h-163.65z" fill="#daeaec"></path><path d="m203.702 229.853h52.297v52.297h-52.297z" fill="#494949"></path><path d="m255.999 282.15h52.297v52.297h-52.297z" fill="#2d2d2d"></path><path d="m255.999 177.556h52.297v52.297h-52.297z" fill="#2d2d2d"></path><path d="m203.702 125.259h52.297v52.297h-52.297z" fill="#494949"></path></g><g><path d="m308.296 334.446h52.297v52.297h-52.297z" fill="#2d2d2d"></path><path d="m308.296 229.853h52.297v52.297h-52.297z" fill="#2d2d2d"></path><path d="m360.592 282.15h52.297v52.297h-52.297z" fill="#2d2d2d"></path><path d="m360.592 177.556h52.297v52.297h-52.297z" fill="#2d2d2d"></path><path d="m308.296 125.259h52.297v52.297h-52.297z" fill="#2d2d2d"></path></g></g><path d="m442.436 96.136v319.729h-372.875v-319.729zm-30 289.73v-259.73h-312.875v259.729h312.875z" fill="#ffdd54"></path><path d="m255.999 126.141h156.44v259.72h-156.44v30h186.44v-319.72h-186.44z" fill="#ecbe00"></path></g></g><g transform="matrix(0.08286407629697695 -0.0607669889464097 0.0607669889464097 0.08286407629697695 224.23044729769302 266.3431456382548)" id="L1_76"><circle cx="256" cy="256" r="256" fill="#ffdd54" id="XMLID_1786_"></circle><path d="m163.146 494.629c28.788 11.21 60.1 17.371 92.854 17.371 139.449 0 252.848-111.5 255.927-250.21l-67.404-67.404-17.066 5.32-110.647-108.33-271.45 285.467z" fill="#ecbe00"></path><g><g><g><path d="m316.81 194.386h127.713v166.69h-127.713z" transform="matrix(-1 0 0 -1 761.332 555.461)" fill="#c30047"></path><path d="m61.384 148.411h127.713v212.664h-127.713z" transform="matrix(-1 0 0 -1 250.48 509.487)" fill="#ff4d05"></path><path d="m189.097 91.376h127.713v269.7h-127.713z" transform="matrix(-1 0 0 -1 505.906 452.451)" fill="#00e4ef"></path><path d="m256 91.38h60.81v269.7h-60.81z" fill="#5ecbf1"></path></g><path d="m45.36 330.667h415.186v46.176h-415.186z" transform="matrix(-1 0 0 -1 505.906 707.51)" fill="#494949"></path><path d="m256 330.67h204.55v46.17h-204.55z" fill="#2d2d2d"></path></g><g><path d="m235.488 144.78h13.156v61.553h15v-76.553h-28.156z" fill="#ffffff"></path><path d="m256 129.78h7.64v76.55h-7.64z" fill="#daeaec"></path><path d="m138.834 223.422c3.973-5.676 6.565-11.049 7.706-15.969l.498-3.597v-.478c0-12.82-10.43-23.25-23.25-23.25-11.085 0-20.68 7.886-22.813 18.752l-1.445 7.359 14.719 2.891 1.445-7.359c.756-3.849 4.16-6.643 8.095-6.643 4.414 0 8.03 3.485 8.241 7.848l-.182 1.421c-.756 2.972-2.539 6.476-5.302 10.425-14.787 21.127-21.258 28.06-21.306 28.111l-2.06 2.162-.045 12.529 46.49.143.046-15-24.888-.076c3.51-4.566 8.153-10.843 14.051-19.269z" fill="#ffffff"></path><path d="m403.916 243.9c0-12.82-10.43-23.25-23.25-23.25-11.084 0-20.679 7.886-22.814 18.751l-1.445 7.359 14.718 2.892 1.446-7.359c.756-3.849 4.16-6.643 8.095-6.643 4.549 0 8.25 3.701 8.25 8.25s-3.701 8.25-8.25 8.25h-7.5v15h7.5c4.549 0 8.25 3.701 8.25 8.25s-3.701 8.25-8.25 8.25c-4.094 0-7.605-3.048-8.17-7.093-.053-.378-.08-.767-.08-1.157v-7.5h-15v7.5c0 1.082.075 2.172.225 3.233 1.592 11.412 11.49 20.017 23.025 20.017 12.82 0 23.25-10.43 23.25-23.25 0-6.072-2.342-11.605-6.167-15.75 3.825-4.145 6.167-9.678 6.167-15.75z" fill="#daeaec"></path></g></g></g><g transform="matrix(0.08177508564847406 0.08177508564847406 -0.08177508564847406 0.08177508564847406 34 -18.86884385201872)" id="L1_77"><circle cx="256" cy="256" r="256" fill="#494949" id="XMLID_1023_"></circle><path d="m87.895 418.502 76.664 76.664c28.399 10.865 59.221 16.834 91.441 16.834 141.385 0 256-114.615 256-256 0-10.667-.664-21.177-1.931-31.501l-145.864-145.865z" fill="#2d2d2d"></path><g><g><g><path d="m185.03 462.718-34.424-53.181-62.711 8.965 65.9-149.947 97.135 44.216z" fill="#00e4ef"></path><path d="m326.97 462.718 34.423-53.181 62.712 8.965-65.9-149.947-97.135 44.216z" fill="#5ecbf1"></path></g><g><circle cx="256" cy="186" r="124" fill="#ffdd54"></circle><path d="m343.78 274.62c-24.24 24.24-56.01 36.36-87.78 36.36v-248.28c31.77 0 63.54 12.12 87.78 36.36 48.48 48.48 48.48 127.08 0 175.56z" fill="#ecbe00"></path><path d="m275.815 167.576h-39.631v18.525c0 15.586-17.689 52.54-17.689 61.339h75.009c0-8.798-17.689-45.753-17.689-61.339 0-8.408 0-9.194 0-18.525z" fill="#ffffff"></path><path d="m256 167.58v79.86h37.5c0-3.08-2.16-9.6-4.97-17.44-5.23-14.59-12.71-33.76-12.71-43.9v-7.52z" fill="#f1f4f6"></path><path d="m212.843 229.995h85.255v31.608h-85.255z" fill="#cedfe2"></path><path d="m256 230h42.1v31.6h-42.1z" fill="#7f7f7f"></path><path d="m223.504 144.261h64.992v34.32h-64.992z" fill="#daeaec"></path><path d="m256 144.26h32.5v34.32h-32.5z" fill="#cedfe2"></path><path d="m279.968 112.074v14.851h-12.827v-14.851h-22.282v14.851h-12.827v-14.851h-14.019v33.361h75.974v-33.361z" fill="#ffffff"></path><path d="m364.205 78.634c-59.664-59.664-156.745-59.664-216.409 0s-59.664 156.745 0 216.409 156.745 59.664 216.409 0c59.663-59.664 59.663-156.745 0-216.409zm-189.019 189.019c-44.561-44.561-44.561-117.067 0-161.628s117.067-44.561 161.628 0 44.561 117.067 0 161.628-117.067 44.561-161.628 0z" fill="#ff9d21"></path><path d="m364.2 78.63c-29.83-29.83-69.02-44.75-108.2-44.75v38.72c29.26 0 58.53 11.14 80.81 33.42 44.57 44.57 44.56 117.07 0 161.63-22.28 22.28-51.55 33.42-80.81 33.42v38.72c39.18 0 78.37-14.91 108.2-44.75 59.67-59.66 59.67-156.74 0-216.41z" fill="#ff7d47"></path></g></g><path d="m293.99 112.07v33.36h-37.99v-33.36h11.14v14.86h12.83v-14.86z" fill="#f1f4f6"></path></g></g><g transform="matrix(0.11877183932625347 0.08286407617362761 -0.08286407617362761 0.11877183932625347 142.80761263292777 104.38120563203044)" id="L1_78"><circle cx="256" cy="256" r="256" fill="#494949" id="XMLID_1145_"></circle><path d="m512 256c0-1.576-.031-3.144-.06-4.712l-52.885-52.885-11.632 12.975-164.098-163.793-48.661 48.644 19.659 19.932-52.135 117.832-79.201-79.361-40.507 264.719 71.487 71.487c31.264 13.603 65.763 21.162 102.033 21.162 141.385 0 256-114.615 256-256z" fill="#2d2d2d"></path><g><g><path d="m82.48 338.62h347.04v80.731h-347.04z" fill="#ffffff"></path><path d="m256 338.62h173.52v80.73h-173.52z" fill="#f1f4f6"></path><g><path d="m200.076 237.233-77.089-82.601-39.5 92.797 85.921 38.933z" fill="#ecbe00"></path><path d="m303.996 237.233 77.089-82.601 39.501 92.797-85.922 38.933z" fill="#ff9d21"></path><path d="m367.981 250.948-111.981-176.948-111.981 176.948-91.075-52.545 29.536 154.138h347.04l29.536-154.138z" fill="#ffdd54"></path><path d="m459.06 198.4-29.54 154.14h-173.52v-278.54l16.19 25.59 95.79 151.36z" fill="#ecbe00"></path></g><ellipse cx="256px" cy="68px" rx="34px" ry="34px" transform="matrix(0.162 -0.987 0.987 0.162 146.621 310.423)" fill="#00e4ef"></ellipse><path d="m290.68 68.92c0 13.3-7.49 24.86-18.49 30.67-4.83 2.56-10.34 4.01-16.19 4.01v-69.35c19.15 0 34.68 15.52 34.68 34.67z" fill="#5ecbf1"></path></g><path d="m256 210.736-40.5 48.722 40.5 48.722 40.5-48.722z" fill="#ff4d05"></path><path d="m296.5 259.46-40.5 48.72v-97.44z" fill="#c30047"></path></g></g><g transform="matrix(0.10775870829820633 0 0 0.10775870829820633 247.41377067565918 75.41377067565918)" id="L1_79"><circle cx="256" cy="256" r="256" fill="#ff4d05" id="XMLID_3410_"></circle><path d="m511.836 264.714-235.263-235.264-26.337 131.66-57.097 41.947 32.507 29.569-13.421 193.713-74.899 34.296 38.561 38.561c25.204 8.299 52.131 12.804 80.113 12.804 138.467 0 251.24-109.938 255.836-247.286z" fill="#c30047"></path><g><path d="m256 189.831c-47.55-21.8-57.2-42.71-53.04-70.1 4.46-29.32 53.04-74.91 53.04-74.91s16.524 15.513 31.184 34.253c1.79 2.288 1.584 5.559-.471 7.613l-11.443 11.444c-5.859 5.859-5.858 15.36.002 21.217 5.859 5.856 15.355 5.855 21.212-.002l2.8-2.8c3.298-3.298 9.031-1.521 9.741 3.089.005.032.01.064.014.095 4.161 27.391-5.489 48.301-53.039 70.101z" fill="#ffffff"></path><path d="m256 189.83v-145.01s5.41 5.08 12.79 12.94c5.51 5.87 12.12 13.29 18.39 21.31 1.79 2.29 1.59 5.56-.47 7.62l-11.44 11.44c-5.86 5.86-5.86 15.36 0 21.22 2.93 2.93 6.77 4.39 10.61 4.39s7.68-1.46 10.6-4.39l2.8-2.8c3.3-3.3 9.04-1.52 9.75 3.09 0 .03.01.06.01.09 4.16 27.39-5.49 48.3-53.04 70.1z" fill="#f1f4f6"></path><g><path d="m321.952 343.919c-11.512-36.799-23.905-46.461-23.905-109.236v-50.734h-84.092v50.734c0 62.775-12.394 72.437-23.905 109.236-7.38 23.586-11.153 48.93-11.153 58.761h154.21c-.002-9.831-3.775-35.176-11.155-58.761z" fill="#ffffff"></path><path d="m333.105 402.68h-77.105v-218.731h42.046v50.734c0 62.775 12.394 72.437 23.905 109.236 7.381 23.585 11.154 48.93 11.154 58.761z" fill="#f1f4f6"></path></g><path d="m193.139 164.848h125.722v38.208h-125.722z" fill="#f1f4f6"></path><path d="m256 164.844h62.859v38.211h-62.859z" fill="#daeaec"></path><g><path d="m154.206 382.326h203.589v41.662h-203.589z" fill="#daeaec"></path><path d="m256 382.32h101.793v41.665h-101.793z" fill="#cedfe2"></path><path d="m137.326 422.167h237.348v38.469h-237.348z" fill="#f1f4f6"></path><path d="m256 422.166h118.674v38.468h-118.674z" fill="#daeaec"></path></g><ellipse cx="256px" cy="39px" rx="22px" ry="22px" transform="matrix(0.16 -0.987 0.987 0.16 176.471 285.47)" fill="#daeaec"></ellipse><path d="m278.69 39.03c0 7.79-3.92 14.66-9.9 18.73-3.64 2.5-8.05 3.96-12.79 3.96v-45.39c12.53 0 22.69 10.16 22.69 22.7z" fill="#cedfe2"></path></g></g><g transform="matrix(0.06629126263374643 0.08562620895245822 -0.08562620895245822 0.06629126263374643 39.94974625759022 78.1091272739316)" id="L1_80"><circle cx="256" cy="256" r="256" fill="#a7fff1" id="XMLID_1998_"></circle><path d="m512 256c0-13.221-1.003-26.208-2.936-38.889l-144.991-144.992-170.096 398.947s19.721 19.304 40.709 40.043c7.029.58 14.135.89 21.314.89 141.385.001 256-114.614 256-255.999z" fill="#00e4ef"></path><g><path d="m246.854 27.65c-114.588 0-164.697 89.957-169.276 157.102-4.157 60.951 14.002 99.805 57.886 151.004 43.885 51.199 58.513 84.112 58.513 135.311h117.026v-71.977c0-16.511 16.554-27.893 31.97-21.982l17.972 6.891c24.413 9.361 50.626-8.663 50.626-34.809v-49.829h33.199c9.687 0 16.001-10.178 11.698-18.857l-50.383-101.623c.001.001-.149-151.231-159.231-151.231z" fill="#494949"></path><path d="m444.77 299.36h-33.2v49.83c0 26.15-26.21 44.17-50.62 34.81l-17.98-6.89c-15.41-5.91-31.97 5.47-31.97 21.98v71.98h-57.1v-443.32c152.04 4.4 152.19 151.13 152.19 151.13l50.38 101.62c4.3 8.68-2.01 18.86-11.7 18.86z" fill="#2d2d2d"></path><g><path d="m282.438 134.146h-57.069v26.676c0 22.444-25.473 75.658-25.473 88.328h108.014c0-12.67-25.473-65.884-25.473-88.328.001-12.108.001-13.24.001-26.676z" fill="#ffffff"></path><path d="m253.903 134.146v115.005h54.007c0-12.67-25.473-65.884-25.473-88.328 0-12.109 0-13.24 0-26.676h-28.534z" fill="#f1f4f6"></path><path d="m182.686 233.82h142.435v35.726h-142.435z" fill="#daeaec"></path><path d="m253.903 233.816h71.217v35.728h-71.217z" fill="#cedfe2"></path><path d="m170.877 268.655h166.054v32.54h-166.054z" fill="#f1f4f6"></path><path d="m253.903 268.654h83.026v32.539h-83.026z" fill="#daeaec"></path><path d="m207.109 116.974h93.589v37.471h-93.589z" fill="#daeaec"></path><path d="m253.903 116.97h46.793v37.475h-46.793z" fill="#cedfe2"></path><path d="m288.417 78.83v18.464h-18.47v-18.464h-32.087v18.464h-18.47v-18.464h-20.189v41.477h109.405v-41.477z" fill="#ffffff"></path><path d="m308.605 78.83v41.475h-54.702v-41.475h16.041v18.463h18.475v-18.463z" fill="#f1f4f6"></path></g></g></g><g transform="matrix(0.1171875 0 0 0.1171875 93 258)" id="L1_81"><circle cx="256" cy="256" r="256" fill="#f1f4f6" id="XMLID_1189_"></circle><path d="m512 256c0-36.17-7.517-70.579-21.049-101.775l-63.124-63.124-18.792 4.911-39.769-38.422-266.005 53.438 5.188 87.72 139.566 139.748 2.22 44.518-87.047 84.061 39.306 39.306c17.258 3.672 35.154 5.619 53.506 5.619 141.385 0 256-114.615 256-256z" fill="#daeaec"></path><g><g><g><path d="m205.539 236.199c-42.823 0-75.489-12.6-97.089-37.45-33.541-38.587-26.491-91.901-26.174-94.151l1.898-13.497h91.489v31.36h-62.787c.423 14.57 3.806 38.076 19.391 55.884 15.387 17.58 40.04 26.494 73.273 26.494v31.36z" fill="#ff9d21"></path><path d="m306.461 236.199v-31.36c33.234 0 57.886-8.914 73.273-26.494 15.579-17.801 18.966-41.299 19.388-55.884h-62.784v-31.36h91.489l1.898 13.497c.316 2.25 7.366 55.564-26.174 94.151-21.6 24.85-54.266 37.45-97.09 37.45z" fill="#ff7d47"></path></g><path d="m369.267 57.591h-226.534s-7.811 105.961 47.863 177.967c4.765 6.163 10.32 11.545 16.464 16.051 15.387 11.284 24.802 28.945 24.802 48.025v89.958h48.276v-89.958c0-19.081 9.415-36.741 24.801-48.025 6.144-4.506 11.699-9.888 16.464-16.051 55.674-72.006 47.864-177.967 47.864-177.967z" fill="#ecbe00"></path><path d="m321.4 235.56c-4.76 6.16-10.32 11.54-16.46 16.05-15.39 11.28-24.8 28.94-24.8 48.02v89.96h-24.14v-332h113.27s7.81 105.96-47.87 177.97z" fill="#ff9d21"></path><path d="m256 94.398 18.352 37.185 41.036 5.963-29.694 28.945 7.01 40.87-36.704-19.296-36.704 19.296 7.01-40.87-29.694-28.945 41.036-5.963z" fill="#ffdd54"></path><path d="m285.69 166.49 7.01 40.87-36.7-19.3v-93.66l18.35 37.18 41.04 5.97z" fill="#ffba55"></path></g><path d="m163.189 359.285h185.623v107.792h-185.623z" fill="#494949"></path><path d="m256 359.29h92.81v107.79h-92.81z" fill="#2d2d2d"></path></g></g><g transform="matrix(0.1171875 0 0 0.1171875 158 0)" id="L1_82"><circle cx="256" cy="256" r="256" fill="#f1f4f6" id="XMLID_1659_"></circle><path d="m511.671 269.056-88.536-88.536-11.916-8.95-134.033-133.993-55.249 64.448-28.173 18.975 48.332 49.257 2.571 20.142-26.222.694c-21.518-17.625-173.619 67.517-100.423 154.152l-15.261 83.42 69.209 69.209c26.324 9.142 54.593 14.126 84.03 14.126 137.006 0 248.874-107.626 255.671-242.944z" fill="#daeaec"></path><g><path d="m318.236 78.627h-41.05v-41.05h-42.372v41.05h-41.05v42.372h41.05v68.926h42.372v-68.926h41.05z" fill="#ff9d21"></path><path d="m318.24 78.63v42.37h-41.05v68.92h-21.19v-152.34h21.19v41.05z" fill="#ff7d47"></path><path d="m379.606 155.085c-74.942-15.573-123.606 63.196-123.606 63.196s-48.664-78.769-123.606-63.197-112.9 140.085 8.76 233.52h229.693c121.659-93.434 83.701-217.947 8.759-233.519z" fill="#ff4d05"></path><path d="m409.24 352.37c-10.46 12.38-23.18 24.55-38.39 36.23h-114.85v-170.32s12.3-19.91 34.06-37.74c21.52-17.62 52.28-33.2 89.55-25.46 65.57 13.63 102.83 110.65 29.63 197.29z" fill="#c30047"></path><path d="m221.937 180.545h68.128v209.15h-68.128z" fill="#ffdd54"></path><path d="m256 180.54h34.06v209.15h-34.06z" fill="#ff9d21"></path><path d="m102.761 352.368h306.478v76.295h-306.478z" fill="#ff9d21"></path><path d="m256 352.37h153.24v76.29h-153.24z" fill="#ff7d47"></path></g></g></defs><g fi:class="KUsePattern" opacity="0.19"><pattern id="pattern_L1_75" width="350" height="350" patternUnits="userSpaceOnUse"><use xlink:href="#L1_75" x="-350" y="-350"></use><use xlink:href="#L1_75" x="0" y="-350"></use><use xlink:href="#L1_75" x="350" y="-350"></use><use xlink:href="#L1_75" x="-350" y="0"></use><use xlink:href="#L1_75" x="0" y="0"></use><use xlink:href="#L1_75" x="350" y="0"></use><use xlink:href="#L1_75" x="-350" y="350"></use><use xlink:href="#L1_75" x="0" y="350"></use><use xlink:href="#L1_75" x="350" y="350"></use></pattern><rect x="0" y="0" width="100%" height="100%" fill="url(#pattern_L1_75)"></rect></g><g fi:class="KUsePattern" opacity="0.24"><pattern id="pattern_L1_76" width="350" height="350" patternUnits="userSpaceOnUse"><use xlink:href="#L1_76" x="-350" y="-350"></use><use xlink:href="#L1_76" x="0" y="-350"></use><use xlink:href="#L1_76" x="350" y="-350"></use><use xlink:href="#L1_76" x="-350" y="0"></use><use xlink:href="#L1_76" x="0" y="0"></use><use xlink:href="#L1_76" x="350" y="0"></use><use xlink:href="#L1_76" x="-350" y="350"></use><use xlink:href="#L1_76" x="0" y="350"></use><use xlink:href="#L1_76" x="350" y="350"></use></pattern><rect x="0" y="0" width="100%" height="100%" fill="url(#pattern_L1_76)"></rect></g><g fi:class="KUsePattern" opacity="0.28"><pattern id="pattern_L1_77" width="350" height="350" patternUnits="userSpaceOnUse"><use xlink:href="#L1_77" x="-350" y="-350"></use><use xlink:href="#L1_77" x="0" y="-350"></use><use xlink:href="#L1_77" x="350" y="-350"></use><use xlink:href="#L1_77" x="-350" y="0"></use><use xlink:href="#L1_77" x="0" y="0"></use><use xlink:href="#L1_77" x="350" y="0"></use><use xlink:href="#L1_77" x="-350" y="350"></use><use xlink:href="#L1_77" x="0" y="350"></use><use xlink:href="#L1_77" x="350" y="350"></use></pattern><rect x="0" y="0" width="100%" height="100%" fill="url(#pattern_L1_77)"></rect></g><g fi:class="KUsePattern" opacity="0.24"><pattern id="pattern_L1_78" width="350" height="350" patternUnits="userSpaceOnUse"><use xlink:href="#L1_78" x="-350" y="-350"></use><use xlink:href="#L1_78" x="0" y="-350"></use><use xlink:href="#L1_78" x="350" y="-350"></use><use xlink:href="#L1_78" x="-350" y="0"></use><use xlink:href="#L1_78" x="0" y="0"></use><use xlink:href="#L1_78" x="350" y="0"></use><use xlink:href="#L1_78" x="-350" y="350"></use><use xlink:href="#L1_78" x="0" y="350"></use><use xlink:href="#L1_78" x="350" y="350"></use></pattern><rect x="0" y="0" width="100%" height="100%" fill="url(#pattern_L1_78)"></rect></g><g fi:class="KUsePattern" opacity="0.24"><pattern id="pattern_L1_79" width="350" height="350" patternUnits="userSpaceOnUse"><use xlink:href="#L1_79" x="-350" y="-350"></use><use xlink:href="#L1_79" x="0" y="-350"></use><use xlink:href="#L1_79" x="350" y="-350"></use><use xlink:href="#L1_79" x="-350" y="0"></use><use xlink:href="#L1_79" x="0" y="0"></use><use xlink:href="#L1_79" x="350" y="0"></use><use xlink:href="#L1_79" x="-350" y="350"></use><use xlink:href="#L1_79" x="0" y="350"></use><use xlink:href="#L1_79" x="350" y="350"></use></pattern><rect x="0" y="0" width="100%" height="100%" fill="url(#pattern_L1_79)"></rect></g><g fi:class="KUsePattern" opacity="0.22"><pattern id="pattern_L1_80" width="350" height="350" patternUnits="userSpaceOnUse"><use xlink:href="#L1_80" x="-350" y="-350"></use><use xlink:href="#L1_80" x="0" y="-350"></use><use xlink:href="#L1_80" x="350" y="-350"></use><use xlink:href="#L1_80" x="-350" y="0"></use><use xlink:href="#L1_80" x="0" y="0"></use><use xlink:href="#L1_80" x="350" y="0"></use><use xlink:href="#L1_80" x="-350" y="350"></use><use xlink:href="#L1_80" x="0" y="350"></use><use xlink:href="#L1_80" x="350" y="350"></use></pattern><rect x="0" y="0" width="100%" height="100%" fill="url(#pattern_L1_80)"></rect></g><g fi:class="KUsePattern" opacity="0.22"><pattern id="pattern_L1_81" width="350" height="350" patternUnits="userSpaceOnUse"><use xlink:href="#L1_81" x="-350" y="-350"></use><use xlink:href="#L1_81" x="0" y="-350"></use><use xlink:href="#L1_81" x="350" y="-350"></use><use xlink:href="#L1_81" x="-350" y="0"></use><use xlink:href="#L1_81" x="0" y="0"></use><use xlink:href="#L1_81" x="350" y="0"></use><use xlink:href="#L1_81" x="-350" y="350"></use><use xlink:href="#L1_81" x="0" y="350"></use><use xlink:href="#L1_81" x="350" y="350"></use></pattern><rect x="0" y="0" width="100%" height="100%" fill="url(#pattern_L1_81)"></rect></g><g fi:class="KUsePattern" opacity="0.24"><pattern id="pattern_L1_82" width="350" height="350" patternUnits="userSpaceOnUse"><use xlink:href="#L1_82" x="-350" y="-350"></use><use xlink:href="#L1_82" x="0" y="-350"></use><use xlink:href="#L1_82" x="350" y="-350"></use><use xlink:href="#L1_82" x="-350" y="0"></use><use xlink:href="#L1_82" x="0" y="0"></use><use xlink:href="#L1_82" x="350" y="0"></use><use xlink:href="#L1_82" x="-350" y="350"></use><use xlink:href="#L1_82" x="0" y="350"></use><use xlink:href="#L1_82" x="350" y="350"></use></pattern><rect x="0" y="0" width="100%" height="100%" fill="url(#pattern_L1_82)"></rect></g></svg> 